<?xml version="1.0" encoding="UTF-8"?>
<svg width="25px" height="24px" viewBox="0 0 25 24" version="1.1" xmlns="http://www.w3.org/2000/svg" xmlns:xlink="http://www.w3.org/1999/xlink">
    <!-- Generator: Sketch 47.1 (45422) - http://www.bohemiancoding.com/sketch -->
    <title>calendar-2</title>
    <desc>Created with Sketch.</desc>
    <defs></defs>
    <g id="Page-1" stroke="none" stroke-width="1" fill="none" fill-rule="evenodd">
        <g id="calendar" transform="translate(-229.000000, -109.000000)" fill-rule="nonzero" fill="#4B80F5">
            <g id="navigaton" transform="translate(205.000000, 55.000000)">
                <g id="calendar" transform="translate(0.000000, 40.000000)">
                    <g id="calendar-2" transform="translate(24.693252, 14.000000)">
                        <path d="M4.58011207,9.0992126 L3.60015941,9.0992126 C3.236177,9.0992126 2.9421912,9.39685039 2.9421912,9.76535433 C2.9421912,10.1338583 3.236177,10.4314961 3.60015941,10.4314961 L4.58011207,10.4314961 C4.94409449,10.4314961 5.23808029,10.1338583 5.23808029,9.76535433 C5.23808029,9.39685039 4.94409449,9.0992126 4.58011207,9.0992126 Z" id="Shape"></path>
                        <path d="M9.7551954,9.0992126 L8.77524274,9.0992126 C8.41126033,9.0992126 8.11727453,9.39685039 8.11727453,9.76535433 C8.11727453,10.1338583 8.41126033,10.4314961 8.77524274,10.4314961 L9.7551954,10.4314961 C10.1191778,10.4314961 10.4131636,10.1338583 10.4131636,9.76535433 C10.4178301,9.39685039 10.1191778,9.0992126 9.7551954,9.0992126 Z" id="Shape"></path>
                        <path d="M14.9349452,9.0992126 L13.9549925,9.0992126 C13.5910101,9.0992126 13.2970243,9.39685039 13.2970243,9.76535433 C13.2923579,10.1338583 13.5910101,10.4314961 13.9549925,10.4314961 L14.9349452,10.4314961 C15.2989276,10.4314961 15.5929134,10.1338583 15.5929134,9.76535433 C15.5929134,9.39685039 15.2989276,9.0992126 14.9349452,9.0992126 Z" id="Shape"></path>
                        <path d="M20.1100285,9.0992126 L19.1300758,9.0992126 C18.7660934,9.0992126 18.4721076,9.39685039 18.4721076,9.76535433 C18.4721076,10.1338583 18.7660934,10.4314961 19.1300758,10.4314961 L20.1100285,10.4314961 C20.4740109,10.4314961 20.7679967,10.1338583 20.7679967,9.76535433 C20.7679967,9.39685039 20.4740109,9.0992126 20.1100285,9.0992126 Z" id="Shape"></path>
                        <path d="M4.58011207,12.6141732 L3.60015941,12.6141732 C3.236177,12.6141732 2.9421912,12.911811 2.9421912,13.280315 C2.9421912,13.6488189 3.236177,13.9464567 3.60015941,13.9464567 L4.58011207,13.9464567 C4.94409449,13.9464567 5.23808029,13.6488189 5.23808029,13.280315 C5.23808029,12.911811 4.94409449,12.6141732 4.58011207,12.6141732 Z" id="Shape"></path>
                        <path d="M9.7551954,12.6141732 L8.77524274,12.6141732 C8.41126033,12.6141732 8.11727453,12.911811 8.11727453,13.280315 C8.11727453,13.6488189 8.41126033,13.9464567 8.77524274,13.9464567 L9.7551954,13.9464567 C10.1191778,13.9464567 10.4131636,13.6488189 10.4131636,13.280315 C10.4178301,12.911811 10.1191778,12.6141732 9.7551954,12.6141732 Z" id="Shape"></path>
                        <path d="M14.9349452,12.6141732 L13.9549925,12.6141732 C13.5910101,12.6141732 13.2970243,12.911811 13.2970243,13.280315 C13.2970243,13.6488189 13.5910101,13.9464567 13.9549925,13.9464567 L14.9349452,13.9464567 C15.2989276,13.9464567 15.5929134,13.6488189 15.5929134,13.280315 C15.5929134,12.911811 15.2989276,12.6141732 14.9349452,12.6141732 Z" id="Shape"></path>
                        <path d="M20.1100285,12.6141732 L19.1300758,12.6141732 C18.7660934,12.6141732 18.4721076,12.911811 18.4721076,13.280315 C18.4721076,13.6488189 18.7660934,13.9464567 19.1300758,13.9464567 L20.1100285,13.9464567 C20.4740109,13.9464567 20.7679967,13.6488189 20.7679967,13.280315 C20.7679967,12.911811 20.4740109,12.6141732 20.1100285,12.6141732 Z" id="Shape"></path>
                        <path d="M4.58011207,16.1291339 L3.60015941,16.1291339 C3.236177,16.1291339 2.9421912,16.4267717 2.9421912,16.7952756 C2.9421912,17.1637795 3.236177,17.4614173 3.60015941,17.4614173 L4.58011207,17.4614173 C4.94409449,17.4614173 5.23808029,17.1637795 5.23808029,16.7952756 C5.23808029,16.4267717 4.94409449,16.1291339 4.58011207,16.1291339 Z" id="Shape"></path>
                        <path d="M9.7551954,16.1291339 L8.77524274,16.1291339 C8.41126033,16.1291339 8.11727453,16.4267717 8.11727453,16.7952756 C8.11727453,17.1637795 8.41126033,17.4614173 8.77524274,17.4614173 L9.7551954,17.4614173 C10.1191778,17.4614173 10.4131636,17.1637795 10.4131636,16.7952756 C10.4178301,16.4267717 10.1191778,16.1291339 9.7551954,16.1291339 Z" id="Shape"></path>
                        <path d="M14.9349452,16.1291339 L13.9549925,16.1291339 C13.5910101,16.1291339 13.2970243,16.4267717 13.2970243,16.7952756 C13.2970243,17.1637795 13.5910101,17.4614173 13.9549925,17.4614173 L14.9349452,17.4614173 C15.2989276,17.4614173 15.5929134,17.1637795 15.5929134,16.7952756 C15.5929134,16.4267717 15.2989276,16.1291339 14.9349452,16.1291339 Z" id="Shape"></path>
                        <path d="M4.58011207,19.6440945 L3.60015941,19.6440945 C3.236177,19.6440945 2.9421912,19.9417323 2.9421912,20.3102362 C2.9421912,20.6787402 3.236177,20.976378 3.60015941,20.976378 L4.58011207,20.976378 C4.94409449,20.976378 5.23808029,20.6787402 5.23808029,20.3102362 C5.23808029,19.9417323 4.94409449,19.6440945 4.58011207,19.6440945 Z" id="Shape"></path>
                        <path d="M9.7551954,19.6440945 L8.77524274,19.6440945 C8.41126033,19.6440945 8.11727453,19.9417323 8.11727453,20.3102362 C8.11727453,20.6787402 8.41126033,20.976378 8.77524274,20.976378 L9.7551954,20.976378 C10.1191778,20.976378 10.4131636,20.6787402 10.4131636,20.3102362 C10.4178301,19.9417323 10.1191778,19.6440945 9.7551954,19.6440945 Z" id="Shape"></path>
                        <path d="M14.9349452,19.6440945 L13.9549925,19.6440945 C13.5910101,19.6440945 13.2970243,19.9417323 13.2970243,20.3102362 C13.2970243,20.6787402 13.5910101,20.976378 13.9549925,20.976378 L14.9349452,20.976378 C15.2989276,20.976378 15.5929134,20.6787402 15.5929134,20.3102362 C15.5929134,19.9417323 15.2989276,19.6440945 14.9349452,19.6440945 Z" id="Shape"></path>
                        <path d="M21.8039467,1.83779528 L19.3260664,1.83779528 L19.3260664,0.666141732 C19.3260664,0.297637795 19.0320806,0 18.6680982,0 C18.3087822,0 18.0147964,0.297637795 18.0147964,0.666141732 L18.0147964,1.83779528 L5.69539153,1.83779528 L5.69539153,0.666141732 C5.69539153,0.297637795 5.40140573,0 5.03742331,0 C4.6734409,0 4.3794551,0.297637795 4.3794551,0.666141732 L4.3794551,1.83779528 L1.90624124,1.83779528 C0.856291967,1.83779528 0.00233322062,2.7023622 0.00233322062,3.76062992 L0.00233322062,22.0724409 C0.00233322062,23.1354331 0.856291967,24 1.90624124,24 L17.6648133,24 C18.1734554,24 18.6494324,23.8015748 19.0087484,23.4377953 L23.1478817,19.2425197 C23.5071977,18.8787402 23.7031883,18.3968504 23.7031883,17.8818898 L23.7031883,3.76062992 C23.7078547,2.7023622 22.8538959,1.83779528 21.8039467,1.83779528 Z M18.83609,21.7228346 L18.83609,19.0677165 L21.45863,19.0677165 L18.83609,21.7228346 Z M22.3919183,17.7354331 L18.1781218,17.7354331 C17.8141394,17.7354331 17.5201536,18.0330709 17.5201536,18.4015748 L17.5201536,22.6677165 L1.90624124,22.6677165 C1.5842568,22.6677165 1.31826965,22.3984252 1.31826965,22.0724409 L1.31826965,7.40787402 L22.3919183,7.40787402 L22.3919183,17.7354331 Z M22.3919183,6.07559055 L1.31826965,6.07559055 L1.31826965,3.76062992 C1.31826965,3.43464567 1.57959036,3.17007874 1.9015748,3.17007874 L4.3794551,3.17007874 L4.3794551,4.34173228 C4.3794551,4.71023622 4.6734409,5.00787402 5.03742331,5.00787402 C5.40140573,5.00787402 5.69539153,4.71023622 5.69539153,4.34173228 L5.69539153,3.17007874 L18.0147964,3.17007874 L18.0147964,4.34173228 C18.0147964,4.71023622 18.3087822,5.00787402 18.6727646,5.00787402 C19.036747,5.00787402 19.3307328,4.71023622 19.3307328,4.34173228 L19.3307328,3.17007874 L21.8086131,3.17007874 C22.1305976,3.17007874 22.3919183,3.43464567 22.3919183,3.76062992 L22.3919183,6.07559055 Z" id="Shape"></path>
                    </g>
                </g>
            </g>
        </g>
    </g>
</svg>