<?xml version="1.0" encoding="UTF-8"?>
<svg width="25px" height="23px" viewBox="0 0 25 23" version="1.1" xmlns="http://www.w3.org/2000/svg" xmlns:xlink="http://www.w3.org/1999/xlink">
    <!-- Generator: Sketch 47.1 (45422) - http://www.bohemiancoding.com/sketch -->
    <title>coins</title>
    <desc>Created with Sketch.</desc>
    <defs></defs>
    <g id="Page-1" stroke="none" stroke-width="1" fill="none" fill-rule="evenodd">
        <g id="calendar" transform="translate(-227.000000, -165.000000)" fill-rule="nonzero" fill="#4B80F5">
            <g id="navigaton" transform="translate(205.000000, 55.000000)">
                <g id="currencies" transform="translate(0.000000, 95.000000)">
                    <g id="coins" transform="translate(22.717791, 15.000000)">
                        <path d="M15.5567485,0 C11.606816,0 7.40797546,1.314 7.40797546,3.75 L7.40797546,6.75 C7.40797546,7.164 7.73985276,7.5 8.14877301,7.5 C8.55769325,7.5 8.88957055,7.164 8.88957055,6.75 L8.88957055,5.9685 C10.4615429,6.972 13.0572975,7.5 15.5567485,7.5 C18.0561994,7.5 20.651954,6.972 22.2239264,5.9685 L22.2239264,6.75 C22.2239264,7.4835 20.4015644,8.6535 16.9761166,8.943 C16.5701595,8.976 16.2664325,9.3405 16.3005092,9.753 C16.3316227,10.1445 16.656092,10.44 17.036862,10.44 C17.0590859,10.44 17.0783466,10.4385 17.1005706,10.437 C19.0296074,10.2735 20.9512362,9.768 22.2239264,8.9475 L22.2239264,9.75 C22.2239264,10.3905 20.8816012,11.3115 18.3910399,11.757 C17.9895276,11.829 17.7198773,12.219 17.7909939,12.6255 C17.8547025,12.9885 18.167319,13.245 18.5184571,13.245 C18.5614233,13.245 18.6058712,13.242 18.6488374,13.233 C20.1556196,12.9645 21.361638,12.525 22.2239264,11.967 L22.2239264,12.75 C22.2239264,13.3905 20.8816012,14.3115 18.3910399,14.757 C17.9895276,14.829 17.7198773,15.219 17.7909939,15.6255 C17.8547025,15.9885 18.167319,16.245 18.5184571,16.245 C18.5614233,16.245 18.6058712,16.242 18.6488374,16.233 C20.1556196,15.9645 21.361638,15.5235 22.2239264,14.967 L22.2239264,15.75 C22.2239264,16.3905 20.8816012,17.3115 18.3910399,17.757 C17.9895276,17.829 17.7198773,18.219 17.7909939,18.6255 C17.8547025,18.9885 18.167319,19.245 18.5184571,19.245 C18.5614233,19.245 18.6058712,19.242 18.6488374,19.233 C20.1556196,18.9645 21.361638,18.5235 22.2239264,17.967 L22.2239264,18.75 C22.2239264,19.4835 20.4015644,20.6535 16.9761166,20.943 C16.5701595,20.976 16.2664325,21.3405 16.3005092,21.753 C16.3316227,22.1445 16.656092,22.44 17.036862,22.44 C17.0590859,22.44 17.0783466,22.4385 17.1005706,22.437 C20.3882301,22.158 23.7055215,20.9115 23.7055215,18.75 L23.7055215,3.75 C23.7055215,1.314 19.506681,0 15.5567485,0 Z M15.5567485,6 C11.4868067,6 8.88957055,4.6665 8.88957055,3.75 C8.88957055,2.8335 11.4868067,1.5 15.5567485,1.5 C19.6266902,1.5 22.2239264,2.8335 22.2239264,3.75 C22.2239264,4.6665 19.6266902,6 15.5567485,6 Z" id="Shape"></path>
                        <path d="M8.14877301,9 C4.19884049,9 0,10.314 0,12.75 L0,18.75 C0,21.186 4.19884049,22.5 8.14877301,22.5 C12.0987055,22.5 16.297546,21.186 16.297546,18.75 L16.297546,12.75 C16.297546,10.314 12.0987055,9 8.14877301,9 Z M14.8159509,18.3280554 C14.8159509,19.4164275 12.2187147,21 8.14877301,21 C4.07883129,21 1.48159509,19.4164275 1.48159509,18.3280554 L1.48159509,17.4 C3.05356748,18.5916873 5.64932209,19.2187036 8.14877301,19.2187036 C10.6482239,19.2187036 13.2439785,18.5916873 14.8159509,17.4 L14.8159509,18.3280554 Z M14.8159509,15.75 C14.8159509,16.6665 12.2187147,18 8.14877301,18 C4.07883129,18 1.48159509,16.6665 1.48159509,15.75 L1.48159509,14.9685 C3.05356748,15.972 5.64932209,16.5 8.14877301,16.5 C10.6482239,16.5 13.2439785,15.972 14.8159509,14.9685 L14.8159509,15.75 Z M8.14877301,15 C4.07883129,15 1.48159509,13.6665 1.48159509,12.75 C1.48159509,11.8335 4.07883129,10.5 8.14877301,10.5 C12.2187147,10.5 14.8159509,11.8335 14.8159509,12.75 C14.8159509,13.6665 12.2187147,15 8.14877301,15 Z" id="Shape"></path>
                    </g>
                </g>
            </g>
        </g>
    </g>
</svg>