<?xml version="1.0" encoding="UTF-8"?>
<svg width="9px" height="9px" viewBox="0 0 9 9" version="1.1" xmlns="http://www.w3.org/2000/svg" xmlns:xlink="http://www.w3.org/1999/xlink">
    <!-- Generator: Sketch 47.1 (45422) - http://www.bohemiancoding.com/sketch -->
    <title>Shape</title>
    <desc>Created with Sketch.</desc>
    <defs></defs>
    <g id="Page-1" stroke="none" stroke-width="1" fill="none" fill-rule="evenodd">
        <g id="currencies" transform="translate(-1071.000000, -173.000000)" fill-rule="nonzero" fill="#D3D3D3">
            <g id="table" transform="translate(520.000000, 123.000000)">
                <g id="body">
                    <g transform="translate(0.000000, 35.000000)">
                        <g id="item-1">
                            <path d="M556.794521,19.6438356 C556.712329,19.5616438 556.712329,19.4383562 556.794521,19.3561644 L559.876712,16.2739726 C559.958904,16.1917808 560,16.0684932 560,15.9863014 C560,15.9041096 559.958904,15.7808219 559.876712,15.6986301 L559.30137,15.1232877 C559.219178,15.0410959 559.09589,15 559.013699,15 C558.890411,15 558.808219,15.0410959 558.726027,15.1232877 L555.643836,18.2054795 C555.561644,18.2876712 555.438356,18.2876712 555.356164,18.2054795 L552.273973,15.1232877 C552.191781,15.0410959 552.068493,15 551.986301,15 C551.90411,15 551.780822,15.0410959 551.69863,15.1232877 L551.123288,15.6986301 C551.041096,15.7808219 551,15.9041096 551,15.9863014 C551,16.0684932 551.041096,16.1917808 551.123288,16.2739726 L554.205479,19.3561644 C554.287671,19.4383562 554.287671,19.5616438 554.205479,19.6438356 L551.123288,22.7260274 C551.041096,22.8082192 551,22.9315068 551,23.0136986 C551,23.0958904 551.041096,23.2191781 551.123288,23.3013699 L551.69863,23.8767123 C551.780822,23.9589041 551.90411,24 551.986301,24 C552.068493,24 552.191781,23.9589041 552.273973,23.8767123 L555.356164,20.7945205 C555.438356,20.7123288 555.561644,20.7123288 555.643836,20.7945205 L558.726027,23.8767123 C558.808219,23.9589041 558.931507,24 559.013699,24 C559.09589,24 559.219178,23.9589041 559.30137,23.8767123 L559.876712,23.3013699 C559.958904,23.2191781 560,23.0958904 560,23.0136986 C560,22.9315068 559.958904,22.8082192 559.876712,22.7260274 L556.794521,19.6438356 Z" id="Shape"></path>
                        </g>
                    </g>
                </g>
            </g>
        </g>
    </g>
</svg>