<?xml version="1.0" encoding="UTF-8"?>
<svg width="138px" height="35px" viewBox="0 0 138 35" version="1.1" xmlns="http://www.w3.org/2000/svg" xmlns:xlink="http://www.w3.org/1999/xlink">
    <!-- Generator: Sketch 47.1 (45422) - http://www.bohemiancoding.com/sketch -->
    <title>logo</title>
    <desc>Created with Sketch.</desc>
    <defs>
        <polygon id="path-1" points="0.144864114 12.787978 0.144864114 0.0832477033 25.6012907 0.0832477033 25.6012907 12.787978 25.6012907 25.4927082 0.144864114 25.4927082"></polygon>
    </defs>
    <g id="Page-1" stroke="none" stroke-width="1" fill="none" fill-rule="evenodd">
        <g id="calendar" transform="translate(-205.000000, -10.000000)">
            <g id="logo" transform="translate(205.000000, 10.000000)">
                <g id="Group-81" transform="translate(48.000000, 6.000000)" fill="#FFFFFF">
                    <path d="M90,7.56899521 C89.6903889,7.73925802 89.3996175,7.97559818 89.067612,8.06684786 C88.1618839,8.31507495 87.2366053,8.49512699 86.3230569,8.71713291 C85.8122519,8.84159608 85.6558468,9.15729898 85.6611788,9.69430858 C85.6917489,12.8730138 85.6771747,16.0524183 85.6757529,19.2311235 C85.6750419,20.172988 85.5982612,20.2443096 84.6203735,20.2460577 C84.0551822,20.2467569 83.4899908,20.2334715 82.9251549,20.2492042 C82.3958656,20.2645873 82.1246449,20.0583141 82.1250003,19.5115152 C82.1303323,14.9986768 82.1292659,10.4858383 82.1264222,5.9729999 C82.1260667,5.50451497 82.3411238,5.27446789 82.8231361,5.28006174 C83.3655776,5.28635482 83.9080191,5.28006174 84.4508161,5.28041135 C85.468516,5.2814602 85.468516,5.28180981 85.5673357,6.07054266 C86.6735467,5.75029475 87.7978865,5.40662259 88.9336012,5.10560354 C89.3758012,4.98848231 89.7852984,5.09966007 90,5.56744578 L90,7.56899521 Z" id="Fill-65"></path>
                    <path d="M52.9499721,0 C53.1082955,0.241584962 53.3772953,0.473956939 53.4028071,0.726460996 C53.4680874,1.37137001 53.4200651,2.02515078 53.4260679,2.67517811 C53.4301948,3.12354343 53.2118436,3.37127038 52.7042332,3.37229404 C51.8698462,3.37331771 51.0358344,3.38014214 50.2018227,3.36717572 C49.747487,3.36001006 49.5051246,3.13992207 49.5092515,2.70930028 C49.5152543,2.03743476 49.4732348,1.36283946 49.5306364,0.695068599 C49.5508958,0.455189745 49.7988858,0.23100709 49.9425774,0 L52.9499721,0 Z" id="Fill-67"></path>
                    <path d="M3.41599294,6.26914926 C3.85959148,6.04093626 4.2821664,5.80362275 4.72120982,5.60166125 C5.91289911,5.05423008 7.16450574,4.93907352 8.43993915,5.19108787 C8.82467154,5.2670422 9.28088426,5.38219875 9.53351818,5.64331362 C10.162475,6.29435069 10.7076878,6.08923901 11.3853494,5.74271928 C12.4747237,5.18548755 13.6797279,5.0335789 14.8924409,5.0668308 C17.3378391,5.13403462 18.7762057,6.44695938 18.9843396,8.92790065 C19.1216939,10.5652939 19.0964656,12.217738 19.1139853,13.8638817 C19.1332569,15.6895857 19.1227451,17.5152896 19.1160876,19.3413436 C19.1136349,20.0917864 18.959812,20.2377447 18.2169772,20.243695 C17.659851,20.2478952 17.1027249,20.2468452 16.5452484,20.244045 C15.7295316,20.2401948 15.606193,20.1285384 15.6047914,19.3210425 C15.5995355,16.4708302 15.6033899,13.6209679 15.6005867,10.7707556 C15.6002363,10.5043904 15.5907757,10.2366252 15.5655473,9.97166009 C15.4152284,8.4000706 14.951307,8.00104788 13.3811924,8.08610272 C13.2476924,8.09345314 13.1134916,8.10115358 12.9824443,8.12425489 C11.3198257,8.41757159 11.2707706,8.52257757 11.2889911,10.1785219 C11.3233297,13.2726981 11.3086131,16.3679243 11.3187746,19.4628005 C11.3205265,20.0245825 11.0563296,20.2681964 10.4946484,20.2489453 C9.89337261,20.2286441 9.29104568,20.2485953 8.68906914,20.243695 C7.9514902,20.2377447 7.78960827,20.084786 7.7882067,19.3392435 C7.78260039,16.555885 7.78645473,13.7725265 7.78540355,10.989168 C7.78505315,10.6107965 7.78505315,10.2317249 7.76683267,9.85405339 C7.69815549,8.40252074 6.9356986,7.7941861 5.50539113,8.13125529 C4.90761932,8.27231332 4.33122153,8.54602891 3.78390642,8.83304525 C3.62202449,8.91775008 3.51550478,9.25411923 3.5144536,9.47603187 C3.4976347,12.726667 3.50359139,15.9776521 3.50218981,19.2286372 C3.50183942,20.1719409 3.42615436,20.242995 2.46152025,20.244395 C1.90439412,20.2454451 1.3465672,20.2293442 0.78979146,20.2485953 C0.213043276,20.2685464 -0.00104733148,19.9993811 3.84990089e-06,19.4407493 C0.00876369474,14.9653944 0.00806290715,10.4896896 0.000704637488,6.01433475 C3.84990089e-06,5.47530405 0.229161391,5.24114072 0.765614288,5.25864172 C1.27753962,5.27509265 1.79086653,5.26109186 2.30349265,5.2617919 C3.30351653,5.26319198 3.30351653,5.26319198 3.41599294,6.26914926" id="Fill-69"></path>
                    <path d="M27.1793824,17.4775083 C27.4479152,16.435059 27.7202892,15.3936556 27.9839333,14.3501604 C28.6505513,11.7116132 29.3252008,9.07515792 29.9691209,6.43103241 C30.1063555,5.86657576 30.3500953,5.5887055 30.9653812,5.6287997 C31.6288564,5.67203171 32.2972203,5.63402938 32.9634891,5.63995635 C33.7408026,5.64658061 33.8714025,5.81706814 33.6587412,6.56421489 C32.8213657,9.50085376 31.9811966,12.4364467 31.1392815,15.3720396 C30.4873299,17.6466012 29.8482985,19.9256951 29.1712047,22.1929351 C28.7280731,23.6764207 28.0715819,25.0253291 26.4254651,25.5235431 C24.6298917,26.0670811 22.8262869,25.926577 21.0429354,25.466714 C20.831671,25.4119767 20.5596462,25.0441559 20.5565034,24.8182338 C20.5250756,22.651055 20.3340646,22.8741879 22.3129666,22.9592574 C22.911491,22.9854058 23.5093171,23.0523457 24.1074923,23.0544375 C25.3031444,23.0582726 25.7881797,22.6911492 26.1509959,21.555263 C26.2442316,21.2627496 26.3168646,20.963612 26.4087036,20.6320504 C26.3018492,20.6045074 26.2239781,20.5647619 26.1478531,20.5672024 C25.0381036,20.6065993 24.3292327,20.0393535 23.9845748,19.0429254 C23.6088384,17.9579414 23.3008462,16.8489009 22.9830765,15.7443928 C22.1030989,12.6846821 21.2304545,9.6228796 20.361302,6.56037979 C20.1287365,5.74210941 20.2118455,5.6441401 21.0837915,5.63925906 C21.7277117,5.63577261 22.3737269,5.6695912 23.0148535,5.629497 C23.5896325,5.59358654 23.8571178,5.8306653 23.990162,6.37559781 C24.8202043,9.7693106 25.6663098,13.1595369 26.51905,16.54802 C26.6028574,16.8816735 26.7659326,17.1954542 26.8923421,17.5186484 C26.9880222,17.5050512 27.0837023,17.4914541 27.1793824,17.4775083" id="Fill-71"></path>
                    <path d="M76.800145,11.3338953 C76.794436,10.1077149 76.521831,9.06019461 75.3928753,8.42438459 C74.3802406,7.85398003 73.3297837,7.9097468 72.372455,8.52008312 C71.3558953,9.16863 71.0897129,10.1844802 71.0922106,11.3338953 L76.800145,11.3338953 Z M71.1275351,13.8282534 C70.914161,15.8045314 72.1184042,17.1938813 74.1226217,17.2148799 C75.6158833,17.2303706 77.1137834,17.1253777 78.6041905,17.0124672 C79.7891658,16.9226207 79.8598147,16.9398327 79.8562466,18.0648068 C79.8501808,19.9846295 79.9918354,19.6655196 78.2520162,19.9316166 C76.3708992,20.2194007 74.4608803,20.4166498 72.5676316,20.0510676 C69.742031,19.5051041 67.9950755,17.8981949 67.6553898,15.1525421 C67.4298841,13.3297949 67.4366635,11.4130704 67.7627904,9.60960057 C68.3022914,6.62848805 70.9997961,4.8797523 74.2218157,5.07768991 C77.9062646,5.30419939 80.034653,7.28839483 80.368273,10.8399119 C80.4374946,11.5789937 80.4221517,12.3256488 80.4371378,13.0692057 C80.448199,13.6055306 80.2066368,13.8430557 79.6107594,13.8378921 C77.0242234,13.8151723 74.4376874,13.8282534 71.8507946,13.8282534 L71.1275351,13.8282534 L71.1275351,13.8282534 Z" id="Fill-73"></path>
                    <path d="M39.6853261,8.73004603 C41.7952332,8.73004603 43.8277254,8.73247152 45.8598658,8.72935304 C47.5580665,8.72658106 47.4693913,8.6035744 47.4602423,10.3000268 C47.4591866,10.4982235 47.4500376,10.6974596 47.4616498,10.8949632 C47.4961347,11.4680703 47.2135704,11.669732 46.6498494,11.664881 C44.5909657,11.6485956 42.5317301,11.658644 40.4724946,11.658644 L39.6853261,11.658644 L39.6853261,12.4354917 C39.6853261,14.661739 39.685678,16.8876398 39.6849742,19.1138871 C39.6846223,20.22164 39.6564714,20.2472809 38.5019342,20.2476274 C37.9199151,20.2476274 37.3378961,20.2389649 36.7562289,20.2497064 C36.2621812,20.2587153 36.0074159,20.0612116 36.0084716,19.5494346 C36.0176206,14.7667278 35.9651896,9.98298148 36.0454196,5.20166063 C36.0929242,2.365231 37.8157569,0.669125089 40.7536513,0.575224231 C42.8452603,0.508350187 44.9460184,0.722485725 47.0429058,0.812921607 C47.59044,0.836829944 47.8149432,1.11056307 47.81248,1.6628803 C47.8022753,3.93590478 47.9173419,3.5817842 45.8911836,3.59980207 C44.5258668,3.61192949 43.1601981,3.58698166 41.7952332,3.60881101 C40.3081639,3.63271935 39.8486011,4.07207835 39.7222741,5.52390343 C39.7011609,5.76506578 39.6881412,6.00761413 39.6870855,6.24981597 C39.682511,7.04087007 39.6853261,7.83227066 39.6853261,8.73004603" id="Fill-75"></path>
                    <path d="M60.9358785,10.3586205 C61.7108478,9.04711867 62.4820217,7.8243943 63.1652093,6.5521526 C63.5275057,5.87730213 63.9543254,5.54588971 64.7227389,5.64103372 C65.2416855,5.70469886 65.7747788,5.63360612 66.2999361,5.66119435 C66.56424,5.67498846 66.8244034,5.77331574 67.086637,5.83344392 C66.9910598,6.07254189 66.9292968,6.33392266 66.7947296,6.54649348 C65.5691325,8.48757283 64.3449155,10.4304207 63.085159,12.3481561 C62.796357,12.788153 62.7846255,13.0880865 63.0830887,13.5326814 C64.4981151,15.6410586 65.8782921,17.7745482 67.2595042,19.9069766 C67.3823399,20.0972647 67.421675,20.3441439 67.5,20.564496 C67.2626096,20.6408942 67.0276344,20.7735299 66.7878287,20.782726 C66.0432232,20.8113753 65.2944772,20.7561988 64.551942,20.8053625 C63.99021,20.8421468 63.6568973,20.6034025 63.373616,20.1435987 C62.5551711,18.8151195 61.7136082,17.5014955 60.8796362,16.1829197 C60.7626662,15.9982908 60.6391404,15.8186136 60.4628228,15.5529885 C60.0149554,16.2925652 59.6033176,16.9709526 59.19306,17.6507548 C58.6637622,18.5289801 58.1689687,19.4323176 57.5879142,20.2734049 C57.4081462,20.5333709 57.0072048,20.737453 56.688729,20.769993 C55.9720721,20.8432079 55.2429936,20.8032403 54.5197809,20.7862629 C54.3403579,20.7820186 54.0329235,20.7208293 54.0122208,20.6309907 C53.9708155,20.4506062 54.0394793,20.2005437 54.1450628,20.0346606 C55.5342109,17.8541296 56.9281897,15.6764281 58.3473566,13.5164114 C58.6061398,13.122395 58.6223568,12.8535866 58.3518422,12.4489593 C57.039984,10.4852434 55.7602149,8.49818369 54.4835512,6.50935548 C54.3638209,6.32366549 54.3441534,6.06971233 54.2782499,5.84759173 C54.4980431,5.78286551 54.7168011,5.66862195 54.9383195,5.66225544 C55.7270907,5.63926525 56.5182771,5.67852542 57.3063581,5.64350959 C57.7866597,5.62228788 58.0754617,5.82212568 58.3221684,6.22038649 C59.1647664,7.58105199 60.0294472,8.92756969 60.9358785,10.3586205" id="Fill-77"></path>
                    <path d="M52.8692439,13.1606645 C52.8692439,15.3916299 52.8719272,17.6225953 52.8679022,19.8532061 C52.8662251,20.6662392 52.7320562,20.8048767 51.9837294,20.8098407 C51.4507436,20.8133864 50.9177578,20.8133864 50.384772,20.8098407 C49.6213512,20.8048767 49.5042889,20.687868 49.5036181,19.8542699 C49.4999284,15.8210163 49.501941,11.7874081 49.501941,7.75379999 C49.501941,7.30278474 49.5116682,6.85212405 49.5005993,6.40181794 C49.4871824,5.86889661 49.6981629,5.61041381 50.2237694,5.62849697 C50.8412816,5.64977127 51.4608063,5.65473527 52.077983,5.62672411 C52.6582633,5.60084037 52.8789711,5.86570546 52.874946,6.46812285 C52.8605229,8.69873369 52.8692439,10.9296991 52.8692439,13.1606645" id="Fill-79"></path>
                </g>
                <g id="Group">
                    <path d="M23.6449862,10.3494224 L7.84529318,16.1418566 C7.81874568,16.1511974 7.79268981,16.162013 7.7674533,16.1743035 C7.71173633,16.2016704 7.66060782,16.23592 7.61472326,16.2757412 C7.52164315,16.3570224 7.44921109,16.4632124 7.40873436,16.5874285 C7.39562448,16.6280691 7.38595595,16.6701845 7.38038425,16.7132833 C7.36350529,16.840449 7.38235073,16.9656483 7.42971016,17.0775739 C7.44970272,17.1249333 7.47477535,17.1696708 7.50427257,17.2112946 C7.50525581,17.2112946 7.50443644,17.2116224 7.50460031,17.2116224 C7.60013853,17.3459986 7.74320003,17.4474362 7.91625038,17.487913 L7.91657812,17.487913 C7.91706974,17.4880768 7.91739749,17.4880768 7.91772524,17.4880768 C7.91821686,17.4882407 7.91838073,17.4884046 7.91870848,17.4884046 C7.91952784,17.4885685 7.91969172,17.4885685 7.92018334,17.4887323 L15.6445214,19.250044 L24.3825805,10.5119849 C24.1895376,10.3187781 23.9014481,10.2553591 23.6449862,10.3494224" id="Fill-51" fill="#FFFFFF"></path>
                    <path d="M24.3060351,10.6342633 L15.567976,19.3723224 L17.3294515,27.0966605 C17.3294515,27.0971521 17.3296154,27.097316 17.3297793,27.0979715 C17.3297793,27.0984631 17.3297793,27.0986269 17.3299431,27.0991186 C17.3299431,27.0994463 17.330107,27.0996102 17.3302709,27.1002657 C17.3302709,27.1004296 17.3302709,27.1004296 17.3302709,27.1004296 C17.3707476,27.2736438 17.4720214,27.4167053 17.6063976,27.5122435 C17.6065615,27.5124074 17.6067254,27.511588 17.6068892,27.5125712 C17.6483492,27.5420685 17.6932505,27.5671411 17.74061,27.5871336 C17.8525355,27.6346569 17.977571,27.6533385 18.1047367,27.6364596 C18.1478354,27.6308879 18.1901148,27.6212193 18.2307554,27.6079456 C18.3548076,27.5676327 18.4611614,27.4952007 18.5424427,27.4019567 C18.5821,27.356236 18.6163496,27.3051075 18.6437165,27.2493905 C18.656007,27.224154 18.6669865,27.1980981 18.6761634,27.1715506 L24.4685976,11.3718576 C24.5626609,11.1153957 24.4994058,10.8273062 24.3060351,10.6342633" id="Fill-53" fill="#FFFFFF"></path>
                    <path d="M27.4806816,3.30553839 C24.1614253,0.973291707 20.0949061,-0.128101627 16.0305172,0.204561439 C11.9179496,0.540993595 8.04381778,2.33557155 5.1219545,5.25743483 C-0.863850343,11.2432397 -1.70189907,20.6220439 3.12958131,27.557823 C3.41193524,27.963082 3.86373429,28.1803782 4.32307152,28.1803782 C4.60968615,28.1803782 4.8992505,28.0958195 5.15227108,27.9194917 C5.31401416,27.8067468 5.44544065,27.6669627 5.54540344,27.5107914 C5.85266613,27.0306422 5.86020431,26.3933384 5.51410362,25.8966381 C1.4883889,20.1173137 2.18763683,12.3015343 7.17692733,7.31224379 C9.6122504,4.87692072 12.8407209,3.38141179 16.2676421,3.10102434 C19.6568724,2.82342275 23.0452833,3.74062235 25.809992,5.68334188 C26.3024317,6.0292787 26.9356386,6.02682059 27.4161155,5.72660447 C27.5758921,5.62664167 27.7189536,5.49374032 27.8341566,5.32986689 C28.2954603,4.67322605 28.1371586,3.7668421 27.4806816,3.30553839" id="Fill-55" fill="#FFFFFF"></path>
                    <path d="M31.7672373,7.48103874 C31.3047864,6.82521727 30.3984025,6.66822652 29.7422533,7.13100509 C29.5783798,7.24669973 29.4454785,7.39008899 29.3458434,7.5503572 C29.0467744,8.03116185 29.0454634,8.66404104 29.3922196,9.15582521 C31.3423135,11.9210255 32.2645931,15.3128778 31.9897774,18.7065327 C31.7116842,22.1378785 30.2156836,25.3706097 27.7775747,27.8088824 C24.9641956,30.6220977 21.233617,32.0710665 17.4781295,32.0709027 C14.6437746,32.0707388 11.7951628,31.2451444 9.31772424,29.5577397 C8.8177464,29.2172107 8.18109812,29.23114 7.7043903,29.5426634 C7.54871054,29.6444288 7.41007362,29.777494 7.29880356,29.940548 C6.84700451,30.6039077 7.01857999,31.5078336 7.68177577,31.9596326 C10.6562424,33.985436 14.0739867,34.9765425 17.4766547,34.9762147 C21.9813714,34.975887 26.4582297,33.2380092 29.8323837,29.8638553 C32.7576883,26.9383868 34.552594,23.0593388 34.8862403,18.9411994 C35.2161175,14.8709111 34.1083331,10.8009506 31.7672373,7.48103874" id="Fill-57" fill="#FFFFFF"></path>
                    <g id="Group-61" transform="translate(1.966481, 1.948971)">
                        <mask id="mask-2" fill="white">
                            <use xlink:href="#path-1"></use>
                        </mask>
                        <g id="Clip-60"></g>
                        <path d="M3.69944272,23.8787188 C-0.326435876,18.0995583 0.372975931,10.283615 5.36226643,5.29432451 C7.7975895,2.85900144 11.0258961,1.36332863 14.4529812,1.08294119 C17.8422115,0.805339593 21.2306224,1.72270306 23.9953311,3.66525872 C24.4877708,4.01152328 25.1208138,4.00873744 25.6012907,3.70868518 C22.907867,1.44641246 19.434078,0.0831493792 15.6413913,0.0831493792 C7.08293746,0.0831493792 0.144864114,7.02122273 0.144864114,15.5796766 C0.144864114,19.3504042 1.4920676,22.8058394 3.73090642,25.4927082 C4.03800523,25.0127229 4.04554341,24.375583 3.69944272,23.8787188" id="Fill-59" fill="#FFFFFF" mask="url(#mask-2)"></path>
                    </g>
                </g>
            </g>
        </g>
    </g>
</svg>