<?xml version="1.0" encoding="UTF-8"?>
<svg width="10px" height="10px" viewBox="0 0 10 10" version="1.1" xmlns="http://www.w3.org/2000/svg" xmlns:xlink="http://www.w3.org/1999/xlink">
    <!-- Generator: Sketch 47.1 (45422) - http://www.bohemiancoding.com/sketch -->
    <title>plus</title>
    <desc>Created with Sketch.</desc>
    <defs></defs>
    <g id="Page-1" stroke="none" stroke-width="1" fill="none" fill-rule="evenodd">
        <g id="calendar" transform="translate(-684.000000, -93.000000)" fill-rule="nonzero" fill="#4B80F5">
            <g id="head" transform="translate(141.000000, 82.000000)">
                <g id="plus" transform="translate(543.000000, 11.000000)">
                    <path d="M9.68749414,3.75000234 L6.24998594,3.75000234 L6.24998594,0.312506445 C6.24998594,0.139912587 6.11007361,0 5.93749883,0 L4.06250117,0 C3.88990764,0 3.74999531,0.139912587 3.74999531,0.312506445 L3.74999531,3.75000234 L0.312505859,3.75000234 C0.139912325,3.75000234 0,3.88991493 0,4.06250879 L0,5.93750996 C0,6.11008507 0.139912325,6.24999766 0.312505859,6.24999766 L3.74999531,6.24999766 L3.74999531,9.6875123 C3.74999531,9.86008741 3.88990764,10 4.06250117,10 L5.93749883,10 C6.11007361,10 6.25000469,9.86008741 6.25000469,9.6875123 L6.25000469,6.24999766 L9.68749414,6.24999766 C9.86006892,6.24999766 10,6.11008507 10,5.93750996 L10,4.06250879 C9.99998125,3.88991493 9.86006892,3.75000234 9.68749414,3.75000234 Z" id="Shape"></path>
                </g>
            </g>
        </g>
    </g>
</svg>