<?xml version="1.0" encoding="UTF-8"?>
<svg width="14px" height="14px" viewBox="0 0 14 14" version="1.1" xmlns="http://www.w3.org/2000/svg" xmlns:xlink="http://www.w3.org/1999/xlink">
    <!-- Generator: Sketch 47.1 (45422) - http://www.bohemiancoding.com/sketch -->
    <title>user</title>
    <desc>Created with Sketch.</desc>
    <defs></defs>
    <g id="Page-1" stroke="none" stroke-width="1" fill="none" fill-rule="evenodd">
        <g id="calendar" transform="translate(-1102.000000, -19.000000)" fill-rule="nonzero" fill="#FFFFFF">
            <g id="user" transform="translate(1102.000000, 17.000000)">
                <g transform="translate(0.000000, 2.000000)" id="Shape">
                    <path d="M9.45,8.63332424 C10.7916621,7.81664848 11.6666485,6.35833788 11.6666485,4.66667576 C11.6666758,2.1 9.56664848,0 7,0 C4.43335152,0 2.33332424,2.1 2.33332424,4.66667576 C2.33332424,6.35833788 3.20831061,7.81667576 4.54997273,8.63332424 C2.21664848,9.50833788 0.466648484,11.55 0,14 L1.16667576,14 C1.75,11.3166758 4.14168939,9.33332424 7,9.33332424 C9.85831061,9.33332424 12.25,11.3166485 12.8333242,14 L14,14 C13.5333515,11.4916621 11.7833515,9.45 9.45,8.63332424 Z M3.5,4.66667576 C3.5,2.74168939 5.07501364,1.16667576 7,1.16667576 C8.92498636,1.16667576 10.5,2.74168939 10.5,4.66667576 C10.5,6.59166212 8.92498636,8.16667576 7,8.16667576 C5.07501364,8.16667576 3.5,6.59166212 3.5,4.66667576 Z"></path>
                </g>
            </g>
        </g>
    </g>
</svg>